<?xml version="1.0" encoding="utf-8"?>
<!-- Generator: Adobe Illustrator 19.0.0, SVG Export Plug-In . SVG Version: 6.00 Build 0)  -->
<svg version="1.1" id="Capa_1" xmlns="http://www.w3.org/2000/svg" xmlns:xlink="http://www.w3.org/1999/xlink" x="0px" y="0px"
	 viewBox="0 0 300 47.6" style="enable-background:new 0 0 300 47.6;" xml:space="preserve">
<style type="text/css">
	.st0{fill:#FFFFFF;}
</style>
<path id="HPTX_POSITIVO" class="st0" d="M300,0v35.4h-7V0H300z M257.3,35.4v-3.8l-0.1,0.3c-0.9,1.5-2,2.6-3.5,3.2
	c-1.4,0.7-2.9,1-4.4,1c-1.9,0-3.4-0.2-4.6-0.7c-1.2-0.5-2.2-1.2-2.8-2.1c-0.7-0.9-1.2-2-1.5-3.3c-0.3-1.3-0.4-2.8-0.4-4.3V9.8h7
	v14.5c0,2.1,0.3,3.7,1,4.7c0.7,1,1.8,1.6,3.5,1.6c1.9,0,3.3-0.6,4.2-1.7c0.9-1.1,1.3-3,1.3-5.6V9.8h7v25.6H257.3z M237.5,14.5V9.8
	h-5.2V3.2h-7v6.6H216l-4.5,6.7L207,9.8h-8l8.4,12.1l-9.2,13.5h7.9l5.4-8.1l5.4,8.1h8l-9.5-13.6l5.1-7.3h4.8v15.1
	c0,1.3,0.2,2.3,0.6,3.1c0.4,0.8,1,1.4,1.8,1.8c0.7,0.4,1.6,0.7,2.6,0.9c1,0.2,2,0.2,3.1,0.2c0.7,0,1.4,0,2.1,0c0.7,0,1.4-0.1,2-0.2
	v-5.5c-0.3,0.1-0.7,0.1-1,0.1c-0.4,0-0.7,0.1-1.1,0.1c-1.2,0-2-0.2-2.4-0.6c-0.4-0.4-0.6-1.2-0.6-2.4V14.5H237.5z M200.1,18.6
	c-0.5-1.8-1.2-3.4-2.3-4.9c-1-1.4-2.4-2.6-4-3.4c-1.6-0.8-3.5-1.3-5.7-1.3c-1.9,0-3.7,0.3-5.3,1c-1.6,0.7-3,1.6-4.1,2.8
	c-1.2,1.2-2,2.6-2.7,4.3c-0.6,1.7-0.9,3.4-0.9,5.4c0,2,0.3,3.8,0.9,5.5c0.6,1.7,1.5,3.1,2.6,4.3c1.1,1.2,2.5,2.1,4.1,2.8
	c1.6,0.6,3.4,1,5.5,1c2.9,0,5.4-0.7,7.4-2c2-1.3,3.6-3.5,4.6-6.6H194c-0.2,0.8-0.9,1.5-1.9,2.3c-1,0.7-2.2,1.1-3.7,1.1
	c-2,0-3.5-0.5-4.6-1.5c-1.1-1-1.6-2.7-1.7-5h18.5C200.8,22.3,200.6,20.4,200.1,18.6z M182.1,19.8c0-0.5,0.1-1.1,0.3-1.7
	c0.2-0.6,0.5-1.2,0.9-1.8c0.4-0.6,1-1,1.8-1.4c0.7-0.4,1.7-0.6,2.8-0.6c1.7,0,3,0.5,3.8,1.4c0.8,0.9,1.4,2.3,1.8,4.1H182.1z
	 M143.9,18.6c-0.5-1.8-1.2-3.4-2.3-4.9c-1-1.4-2.4-2.6-4-3.4c-1.6-0.8-3.5-1.3-5.7-1.3c-1.9,0-3.7,0.3-5.3,1c-1.6,0.7-3,1.6-4.1,2.8
	c-1.2,1.2-2,2.6-2.7,4.3c-0.6,1.7-0.9,3.4-0.9,5.4c0,2,0.3,3.8,0.9,5.5c0.6,1.7,1.5,3.1,2.6,4.3c1.1,1.2,2.5,2.1,4.1,2.8
	c1.6,0.6,3.4,1,5.4,1c2.9,0,5.4-0.7,7.4-2c2-1.3,3.6-3.5,4.6-6.6h-6.2c-0.2,0.8-0.9,1.5-1.9,2.3c-1,0.7-2.2,1.1-3.7,1.1
	c-2,0-3.5-0.5-4.6-1.5c-1.1-1-1.6-2.7-1.7-5h18.5C144.5,22.3,144.4,20.4,143.9,18.6z M125.9,19.8c0-0.5,0.1-1.1,0.3-1.7
	c0.2-0.6,0.5-1.2,0.9-1.8c0.4-0.6,1-1,1.8-1.4c0.7-0.4,1.7-0.6,2.8-0.6c1.7,0,3,0.5,3.8,1.4c0.8,0.9,1.4,2.3,1.8,4.1H125.9z
	 M116.7,17.6c-0.5-1.7-1.2-3.1-2.1-4.4c-1-1.3-2.2-2.3-3.6-3c-1.5-0.8-3.2-1.1-5.2-1.1c-1.6,0-3,0.3-4.4,0.9c-1.3,0.6-2.4,1.6-3.3,3
	l-0.1,0.1l0-3.4h-6.7v37.8h7l0-15.5l0.1,0.1c0.9,1.3,2,2.2,3.3,2.8c1.3,0.6,2.8,1,4.4,1c1.9,0,3.5-0.4,4.9-1.1
	c1.4-0.7,2.6-1.7,3.5-2.9c0.9-1.2,1.6-2.6,2.1-4.2c0.5-1.6,0.7-3.2,0.7-5C117.4,21,117.2,19.3,116.7,17.6z M110.3,25.7
	c-0.2,1-0.5,1.9-1,2.6c-0.5,0.7-1.1,1.3-1.9,1.8c-0.8,0.5-1.7,0.7-2.9,0.7c-1.1,0-2.1-0.2-2.9-0.7c-0.8-0.5-1.4-1.1-1.9-1.8
	c-0.5-0.7-0.8-1.6-1-2.6c-0.2-1-0.3-2-0.3-3c0-1.1,0.1-2.1,0.3-3.1c0.2-1,0.5-1.9,1-2.6c0.5-0.8,1.1-1.4,1.9-1.9
	c0.8-0.5,1.7-0.7,2.9-0.7c1.1,0,2.1,0.2,2.9,0.7c0.8,0.5,1.4,1.1,1.9,1.9c0.5,0.8,0.8,1.7,1.1,2.7c0.2,1,0.3,2,0.3,3
	C110.6,23.7,110.5,24.7,110.3,25.7z M88.9,9.8v25.6h-7V9.8H88.9z M62.4,0l0,13.6l0.1-0.2c0.9-1.5,2-2.6,3.4-3.2c1.4-0.7,2.7-1,4.1-1
	c1.9,0,3.4,0.3,4.6,0.8c1.2,0.5,2.2,1.2,2.8,2.1c0.7,0.9,1.2,2,1.5,3.3c0.3,1.3,0.4,2.7,0.4,4.3v15.8h-7V20.9c0-2.1-0.3-3.7-1-4.7
	c-0.7-1-1.8-1.6-3.5-1.6c-1.9,0-3.3,0.6-4.2,1.7c-0.9,1.1-1.3,3-1.3,5.6v13.4h-7V0H62.4z M290,16.4c0-1.6-0.3-2.8-1-3.7
	c-0.7-0.9-1.6-1.7-2.7-2.2c-1.1-0.5-2.3-0.9-3.6-1.1c-1.3-0.2-2.6-0.3-3.9-0.3c-1.4,0-2.8,0.1-4.2,0.4c-1.4,0.3-2.7,0.8-3.8,1.4
	c-1.1,0.7-2,1.5-2.8,2.6c-0.7,1.1-1.1,2.5-1.2,4.1h7c0.1-1.4,0.6-2.4,1.4-3c0.8-0.6,1.9-0.9,3.3-0.9c0.6,0,1.2,0,1.8,0.1
	c0.5,0.1,1,0.2,1.4,0.5c0.4,0.2,0.7,0.6,1,1c0.2,0.4,0.4,1,0.4,1.8c0,0.7-0.2,1.3-0.6,1.7c-0.5,0.4-1.1,0.7-1.9,0.9
	c-0.8,0.2-1.7,0.3-2.7,0.4c-1,0.1-2.1,0.2-3.1,0.4c-1.1,0.2-2.1,0.4-3.1,0.7c-1,0.3-2,0.7-2.8,1.3c-0.8,0.6-1.5,1.3-2,2.3
	c-0.5,0.9-0.8,2.1-0.8,3.6c0,1.3,0.2,2.5,0.7,3.4c0.4,1,1.1,1.8,1.9,2.4c0.8,0.6,1.7,1.1,2.8,1.4c1.1,0.3,2.2,0.4,3.4,0.4
	c1.6,0,3.1-0.2,4.7-0.7c1.5-0.5,2.8-1.3,4-2.4v2.5h6.7V16.4z M283,25.5c0,0.4,0,0.9-0.1,1.6c-0.1,0.7-0.3,1.3-0.7,2
	c-0.4,0.6-0.9,1.2-1.7,1.7c-0.8,0.5-1.8,0.7-3.2,0.7c-0.6,0-1.1,0-1.6-0.1c-0.5-0.1-1-0.3-1.4-0.5c-0.4-0.2-0.7-0.6-0.9-1
	c-0.2-0.4-0.3-1-0.3-1.6c0-0.7,0.1-1.2,0.3-1.6c0.2-0.4,0.5-0.8,0.9-1.1c0.4-0.3,0.8-0.5,1.3-0.7c0.5-0.2,1-0.3,1.6-0.4
	c0.6-0.1,1.1-0.2,1.7-0.2c0.6-0.1,1.1-0.1,1.6-0.2c0.5-0.1,1-0.2,1.4-0.4c0.4-0.1,0.8-0.4,1.1-0.6V25.5z M88.9,0h-7v6.4h7V0z
	 M174.6,14.5V9.8h-5.2V3.2h-7v6.6l-1.4,0c-0.7,0-1.4,0.1-2.1,0.3c-0.2,0-0.4,0.1-0.6,0.1c-0.7,0.2-1.3,0.5-1.9,0.9
	c-0.1,0.1-0.2,0.1-0.3,0.2c0,0-0.1,0-0.1,0.1c0,0-0.1,0.1-0.1,0.1c-0.1,0.1-0.3,0.2-0.4,0.3c0,0-0.1,0-0.1,0.1
	c-1.2,0.9-2.2,2.2-2.8,3.6l-0.1-5.6h-6.7v25.6h7l0-11.9c0-5,4-9,9-9c0.2,0,0.3,0,0.4,0v15.1c0,1.3,0.2,2.3,0.6,3.1
	c0.4,0.8,1,1.4,1.8,1.8c0.7,0.4,1.6,0.7,2.6,0.9c1,0.2,2,0.2,3.1,0.2c0.7,0,1.4,0,2.1,0c0.7,0,1.4-0.1,2-0.2v-5.5
	c-0.3,0.1-0.7,0.1-1,0.1c-0.4,0-0.7,0.1-1.1,0.1c-1.2,0-2-0.2-2.4-0.6c-0.4-0.4-0.6-1.2-0.6-2.4V14.5H174.6z M49,17.7
	C49,7.9,41.1,0,31.3,0H17.7C7.9,0,0,7.9,0,17.7c0,9.8,7.9,17.7,17.7,17.7h6.8h12.3L49,47.6c0,0,0-21.6,0-29.8
	C49,17.8,49,17.7,49,17.7z M42.6,29v3.2L39.4,29h0l0,0H17.7c-6.2,0-11.3-5.1-11.3-11.3c0-6.2,5.1-11.3,11.3-11.3h13.6
	c6.2,0,11.3,5.1,11.3,11.3v0l0,0v4.6V29z"/>
</svg>
